<?xml version="1.0" encoding="UTF-8"?>
<!DOCTYPE svg PUBLIC "-//W3C//DTD SVG 1.1//EN" "http://www.w3.org/Graphics/SVG/1.1/DTD/svg11.dtd">
<svg version="1.1" xmlns="http://www.w3.org/2000/svg" xmlns:xlink="http://www.w3.org/1999/xlink" x="0" y="0" width="65.31" height="65.31" viewBox="0, 0, 65.31, 65.31">
  <g id="Capa_1" transform="translate(-306.359, -226.363)">
    <path d="M371.669,259.018 C371.669,265.052 370.032,270.705 367.178,275.555 C361.503,285.199 351.015,291.673 339.014,291.673 C332.169,291.673 325.817,289.567 320.57,285.968 C311.987,280.085 306.359,270.209 306.359,259.018 C306.359,252.104 308.507,245.692 312.174,240.413 C316.12,234.732 321.821,230.363 328.495,228.095 C331.795,226.972 335.334,226.363 339.014,226.363 C343.992,226.363 348.71,227.477 352.932,229.469 C355.263,230.57 357.443,231.937 359.433,233.534 C366.893,239.519 371.669,248.711 371.669,259.018 z M371.669,259.018" fill="#74B8F9"/>
    <path d="M367.178,275.555 C361.503,285.199 351.015,291.673 339.014,291.673 C332.17,291.673 325.817,289.567 320.57,285.968 C316.195,271.122 313.381,255.854 312.174,240.413 C311.853,236.292 311.645,232.157 311.554,228.016 C314.227,229.177 316.907,230.295 319.596,231.368 C322.195,230.091 324.803,228.857 327.423,227.665 C327.781,227.809 328.137,227.952 328.495,228.095 C330.81,229.014 333.132,229.902 335.458,230.756 C338.06,229.566 340.671,228.419 343.293,227.315 C345.962,228.302 348.637,229.246 351.32,230.144 C351.857,229.918 352.395,229.693 352.932,229.469 C355.003,228.608 357.082,227.773 359.165,226.965 C359.213,229.158 359.304,231.348 359.433,233.534 C360.288,247.81 362.889,261.923 367.178,275.555 z M367.178,275.555" fill="#F1F4FE"/>
    <path d="M367.178,275.555 C361.503,285.199 351.015,291.673 339.014,291.673 C332.169,291.673 325.817,289.567 320.57,285.968 C319.835,283.477 319.145,280.974 318.5,278.46 C319.564,279.416 320.69,280.302 321.872,281.113 C327.119,284.712 333.472,286.817 340.316,286.817 C351.078,286.817 360.624,281.611 366.57,273.581 C366.769,274.24 366.972,274.898 367.178,275.555 z M367.178,275.555" fill="#C5CAE2"/>
    <g>
      <path d="M320.253,246.088 C319.259,246.088 318.398,245.348 318.272,244.337 C318.135,243.241 318.912,242.242 320.008,242.105 L353.357,237.936 C354.451,237.8 355.451,238.576 355.588,239.672 C355.725,240.768 354.948,241.767 353.852,241.904 L320.503,246.072 C320.419,246.083 320.335,246.088 320.253,246.088 z M320.253,246.088" fill="#274B7B"/>
      <path d="M322.164,255.815 C321.181,255.815 320.324,255.09 320.185,254.089 C320.035,252.995 320.798,251.986 321.892,251.835 L354.547,247.319 C355.639,247.167 356.649,247.932 356.801,249.026 C356.952,250.119 356.188,251.129 355.094,251.28 L322.44,255.796 C322.347,255.809 322.255,255.815 322.164,255.815 z M322.164,255.815" fill="#274B7B"/>
      <path d="M339.913,273.627 C338.964,273.627 338.122,272.949 337.948,271.983 C337.752,270.896 338.474,269.856 339.56,269.66 L359.328,266.091 C360.415,265.894 361.455,266.617 361.651,267.703 C361.847,268.79 361.125,269.83 360.039,270.026 L340.27,273.595 C340.15,273.616 340.031,273.627 339.913,273.627 z M339.913,273.627" fill="#274B7B"/>
      <path d="M334.099,286.7 C331.379,287.38 328.78,286.617 328.369,285.181 C328.151,284.418 328.504,283.102 329.357,282.858 C330.299,282.588 331.442,283.695 333.187,283.511 L332.147,279.874 C329.856,279.679 327.155,279.407 326.333,276.533 C325.518,273.682 327.236,271.709 329.52,270.691 L329.34,270.063 C329.25,269.748 329.526,269.354 330.02,269.213 C330.446,269.091 330.956,269.261 331.046,269.574 L331.207,270.136 C332.611,269.783 335.342,269.391 335.784,270.94 C335.958,271.546 335.907,272.896 334.919,273.179 C334.178,273.391 333.546,272.794 332.054,273.099 L332.992,276.377 C335.254,276.556 337.936,276.931 338.803,279.962 C339.599,282.746 338.284,284.944 335.78,286.122 L335.965,286.773 C336.056,287.087 335.712,287.501 335.286,287.623 C334.792,287.764 334.349,287.575 334.259,287.261 z M331.356,276.263 L330.592,273.591 C329.639,274.082 329.36,274.72 329.515,275.259 C329.701,275.91 330.4,276.148 331.356,276.263 z M333.802,280.057 L334.662,283.065 C335.374,282.667 335.858,282.067 335.628,281.259 C335.415,280.518 334.719,280.207 333.802,280.057 z M333.802,280.057" fill="#274B7B"/>
    </g>
  </g>
</svg>
