<?xml version="1.0" encoding="UTF-8"?>
<!DOCTYPE svg PUBLIC "-//W3C//DTD SVG 1.1//EN" "http://www.w3.org/Graphics/SVG/1.1/DTD/svg11.dtd">
<svg version="1.1" xmlns="http://www.w3.org/2000/svg" xmlns:xlink="http://www.w3.org/1999/xlink" x="0" y="0" width="132.039" height="105.918" viewBox="0, 0, 132.039, 105.918">
  <g id="Capa_1" transform="translate(-376.345, 160.116)">
    <g id="trolley">
      <path d="M496.311,-156.248 L496.311,-77.133 C496.311,-74.998 494.578,-73.265 492.443,-73.265 L413.328,-73.265 C411.19,-73.265 409.46,-74.998 409.46,-77.133 L409.46,-156.248 C409.46,-158.386 411.19,-160.116 413.328,-160.116 L492.443,-160.116 C494.578,-160.116 496.311,-158.386 496.311,-156.248 z" fill="#FFC200"/>
      <path d="M492.443,-160.116 L453.103,-160.116 L453.103,-73.265 L492.443,-73.265 C494.578,-73.265 496.311,-74.998 496.311,-77.133 L496.311,-156.248 C496.311,-158.386 494.578,-160.116 492.443,-160.116 z" fill="#FE9900"/>
      <path d="M504.515,-73.224 L401.691,-73.224 C399.554,-73.224 397.822,-74.956 397.822,-77.092 C397.822,-79.228 399.554,-80.96 401.691,-80.96 L504.515,-80.96 C506.651,-80.96 508.383,-79.228 508.383,-77.092 C508.383,-74.956 506.651,-73.224 504.515,-73.224 z" fill="#004A84"/>
      <path d="M430.429,-120.014 L380.213,-120.014 C378.077,-120.014 376.345,-121.746 376.345,-123.882 C376.345,-126.019 378.077,-127.751 380.213,-127.751 L430.429,-127.751 C432.566,-127.751 434.298,-126.019 434.298,-123.882 C434.298,-121.746 432.566,-120.014 430.429,-120.014 z" fill="#FE9900"/>
      <path d="M457.2,-160.116 L457.2,-139.475 C457.2,-137.339 455.467,-135.606 453.332,-135.606 C451.194,-135.606 449.463,-137.339 449.463,-139.475 L449.463,-160.116 z" fill="#F3EDEA"/>
      <path d="M477.152,-88.394 L462.711,-88.394 C460.575,-88.394 458.843,-90.126 458.843,-92.262 C458.843,-94.399 460.575,-96.131 462.711,-96.131 L477.152,-96.131 C479.288,-96.131 481.02,-94.399 481.02,-92.262 C481.02,-90.126 479.289,-88.394 477.152,-88.394 z" fill="#FD6601"/>
      <path d="M438.215,-104.442 L387.999,-104.442 C385.862,-104.442 384.13,-106.174 384.13,-108.311 C384.13,-110.447 385.862,-112.179 387.999,-112.179 L438.215,-112.179 C440.352,-112.179 442.083,-110.447 442.083,-108.311 C442.083,-106.174 440.352,-104.442 438.215,-104.442 z" fill="#FE9900"/>
      <path d="M446.001,-88.87 L395.785,-88.87 C393.648,-88.87 391.916,-90.602 391.916,-92.739 C391.916,-94.875 393.648,-96.607 395.785,-96.607 L446.001,-96.607 C448.138,-96.607 449.87,-94.875 449.87,-92.739 C449.87,-90.602 448.138,-88.87 446.001,-88.87 z" fill="#FE9900"/>
      <path d="M504.515,-80.96 L453.103,-80.96 L453.103,-73.224 L504.515,-73.224 C506.651,-73.224 508.383,-74.956 508.383,-77.092 C508.383,-79.228 506.651,-80.96 504.515,-80.96 z" fill="#003165"/>
      <path d="M457.2,-139.475 L457.2,-160.116 L453.103,-160.116 L453.103,-135.618 C453.179,-135.614 453.254,-135.606 453.332,-135.606 C455.467,-135.606 457.2,-137.339 457.2,-139.475 z" fill="#E3DCDA"/>
      <path d="M426.53,-79.947 C419.731,-82.866 411.825,-79.709 408.906,-72.91 L408.906,-72.91 C407.492,-69.617 407.446,-65.969 408.775,-62.641 C410.104,-59.312 412.65,-56.7 415.943,-55.286 C417.664,-54.548 419.454,-54.198 421.218,-54.198 C426.424,-54.198 431.387,-57.245 433.567,-62.323 C436.486,-69.123 433.329,-77.029 426.53,-79.947 z" fill="#003165"/>
      <path d="M427.087,-67.617 C427.087,-64.384 424.466,-61.763 421.233,-61.763 C418,-61.763 415.379,-64.384 415.379,-67.617 C415.379,-70.85 418,-73.471 421.233,-73.471 C424.466,-73.471 427.087,-70.85 427.087,-67.617 z" fill="#F3EDEA"/>
      <path d="M490.156,-79.947 C483.357,-82.866 475.452,-79.709 472.533,-72.91 L472.533,-72.91 C471.119,-69.617 471.072,-65.969 472.402,-62.641 C473.73,-59.312 476.276,-56.7 479.57,-55.286 C481.29,-54.548 483.081,-54.198 484.845,-54.198 C490.05,-54.198 495.013,-57.245 497.194,-62.323 C500.112,-69.123 496.955,-77.029 490.156,-79.947 z" fill="#020B37"/>
      <path d="M490.714,-67.617 C490.714,-64.384 488.093,-61.763 484.86,-61.763 C481.626,-61.763 479.005,-64.384 479.005,-67.617 C479.005,-70.85 481.626,-73.471 484.86,-73.471 C488.093,-73.471 490.714,-70.85 490.714,-67.617 z" fill="#E3DCDA"/>
    </g>
  </g>
</svg>
