<?xml version="1.0" encoding="UTF-8"?>
<!DOCTYPE svg PUBLIC "-//W3C//DTD SVG 1.1//EN" "http://www.w3.org/Graphics/SVG/1.1/DTD/svg11.dtd">
<svg version="1.1" xmlns="http://www.w3.org/2000/svg" xmlns:xlink="http://www.w3.org/1999/xlink" x="0" y="0" width="376.663" height="63.209" viewBox="0, 0, 376.663, 63.209">
  <g id="Capa_1" transform="translate(-142.749, -284.366)">
    <g>
      <path d="M148.947,335.383 Q146.086,335.383 144.417,333.714 Q142.749,332.045 142.749,329.184 L142.749,292.744 Q142.749,289.951 144.417,288.283 Q146.086,286.614 148.947,286.614 Q151.876,286.614 153.579,288.283 Q155.281,289.951 155.281,292.744 L155.281,329.184 Q155.281,332.045 153.579,333.714 Q151.876,335.383 148.947,335.383 z" fill="#75B8F8"/>
      <path d="M185.728,300.645 Q191.722,300.645 194.65,304.221 Q197.579,307.797 197.579,315.085 L197.579,329.797 Q197.579,332.386 195.945,333.884 Q194.31,335.383 191.517,335.383 Q188.725,335.383 187.09,333.884 Q185.455,332.386 185.455,329.797 L185.455,315.63 Q185.455,312.633 184.399,311.271 Q183.344,309.909 181.232,309.909 Q178.508,309.909 176.907,311.645 Q175.306,313.382 175.306,316.311 L175.306,329.797 Q175.306,332.386 173.672,333.884 Q172.037,335.383 169.244,335.383 Q166.452,335.383 164.817,333.884 Q163.182,332.386 163.182,329.797 L163.182,306.23 Q163.182,303.846 164.885,302.314 Q166.588,300.781 169.313,300.781 Q171.901,300.781 173.433,302.212 Q174.966,303.642 174.966,305.958 Q176.737,303.37 179.529,302.007 Q182.322,300.645 185.728,300.645 z" fill="#75B8F8"/>
      <path d="M226.799,304.187 Q227.549,302.484 228.877,301.667 Q230.205,300.85 231.772,300.85 Q234.019,300.85 235.756,302.348 Q237.493,303.846 237.493,305.958 Q237.493,307.116 236.948,308.206 L225.029,331.909 Q224.211,333.612 222.679,334.531 Q221.146,335.451 219.307,335.451 Q217.468,335.451 215.901,334.531 Q214.335,333.612 213.518,331.909 L201.598,308.206 Q201.053,306.98 201.053,306.026 Q201.053,303.846 202.926,302.314 Q204.799,300.781 207.251,300.781 Q208.886,300.781 210.282,301.633 Q211.679,302.484 212.428,304.187 L219.648,319.785 z" fill="#75B8F8"/>
      <path d="M257.382,335.519 Q251.865,335.519 247.676,333.373 Q243.487,331.228 241.205,327.277 Q238.924,323.327 238.924,318.014 Q238.924,312.701 241.205,308.785 Q243.487,304.868 247.642,302.757 Q251.797,300.645 257.382,300.645 Q262.967,300.645 267.122,302.757 Q271.277,304.868 273.559,308.785 Q275.841,312.701 275.841,318.014 Q275.841,323.327 273.559,327.277 Q271.277,331.228 267.122,333.373 Q262.967,335.519 257.382,335.519 z M257.382,326.46 Q263.853,326.46 263.853,318.014 Q263.853,309.568 257.382,309.568 Q250.911,309.568 250.911,318.014 Q250.911,326.46 257.382,326.46 z" fill="#75B8F8"/>
      <path d="M287.42,335.383 Q284.831,335.383 283.095,333.986 Q281.358,332.59 281.358,329.797 L281.358,306.367 Q281.358,303.574 283.095,302.178 Q284.831,300.781 287.42,300.781 Q290.008,300.781 291.745,302.178 Q293.482,303.574 293.482,306.367 L293.482,329.797 Q293.482,332.59 291.745,333.986 Q290.008,335.383 287.42,335.383 z M287.42,296.013 Q284.355,296.013 282.55,294.413 Q280.745,292.812 280.745,290.156 Q280.745,287.499 282.55,285.933 Q284.355,284.366 287.42,284.366 Q290.417,284.366 292.256,285.933 Q294.095,287.499 294.095,290.156 Q294.095,292.812 292.29,294.413 Q290.485,296.013 287.42,296.013 z" fill="#75B8F8"/>
      <path d="M316.64,335.519 Q308.467,335.519 303.699,330.887 Q298.931,326.255 298.931,318.286 Q298.931,313.042 301.247,309.023 Q303.562,305.004 307.751,302.825 Q311.94,300.645 317.321,300.645 Q320.182,300.645 323.043,301.394 Q325.903,302.144 328.083,303.506 Q330.194,304.8 330.194,307.456 Q330.194,309.568 329.207,310.896 Q328.219,312.224 326.653,312.224 Q325.631,312.224 324.677,311.918 Q323.724,311.611 322.566,310.998 Q321.204,310.385 320.25,310.079 Q319.296,309.772 318.139,309.772 Q311.395,309.772 311.395,318.014 Q311.395,322.101 313.132,324.246 Q314.869,326.392 318.139,326.392 Q319.296,326.392 320.284,326.085 Q321.272,325.779 322.498,325.166 Q323.86,324.553 324.711,324.246 Q325.563,323.94 326.584,323.94 Q328.151,323.94 329.139,325.268 Q330.126,326.596 330.126,328.708 Q330.126,330.002 329.581,331.057 Q329.037,332.113 328.083,332.658 Q323.383,335.519 316.64,335.519 z" fill="#75B8F8"/>
      <path d="M361.799,324.212 Q363.365,324.212 364.353,325.438 Q365.341,326.664 365.341,328.639 Q365.341,331.364 362.684,332.794 Q360.368,333.952 357.201,334.736 Q354.034,335.519 351.377,335.519 Q345.792,335.519 341.637,333.407 Q337.482,331.296 335.235,327.345 Q332.987,323.395 332.987,318.082 Q332.987,313.042 335.133,309.057 Q337.278,305.072 341.126,302.859 Q344.975,300.645 349.811,300.645 Q354.511,300.645 358.052,302.689 Q361.594,304.732 363.536,308.478 Q365.477,312.224 365.477,317.265 Q365.477,318.831 364.762,319.683 Q364.046,320.534 362.684,320.534 L344.702,320.534 Q345.179,323.803 346.814,325.234 Q348.449,326.664 351.65,326.664 Q353.353,326.664 354.783,326.29 Q356.213,325.915 357.984,325.234 Q359.006,324.825 359.994,324.519 Q360.981,324.212 361.799,324.212 z M350.151,308.819 Q347.767,308.819 346.337,310.351 Q344.907,311.884 344.634,314.813 L355.328,314.813 Q354.919,308.819 350.151,308.819 z" fill="#75B8F8"/>
    </g>
    <g>
      <path d="M434.815,327.277 Q435.428,328.571 435.428,329.797 Q435.428,332.045 433.623,333.612 Q431.818,335.178 429.503,335.178 Q427.936,335.178 426.642,334.361 Q425.348,333.544 424.598,331.909 L421.533,325.029 L399.465,325.029 L396.332,331.909 Q395.582,333.544 394.254,334.361 Q392.926,335.178 391.359,335.178 Q389.044,335.178 387.171,333.612 Q385.297,332.045 385.297,329.797 Q385.297,328.571 385.91,327.277 L403.892,290.36 Q404.778,288.521 406.515,287.534 Q408.251,286.546 410.363,286.546 Q412.406,286.546 414.177,287.534 Q415.948,288.521 416.834,290.36 z M403.688,315.63 L417.31,315.63 L410.499,300.441 z" fill="#274B7B"/>
      <path d="M462.06,300.645 Q466.351,300.645 469.723,302.859 Q473.095,305.073 474.968,309.091 Q476.841,313.11 476.841,318.286 Q476.841,323.463 474.968,327.379 Q473.095,331.296 469.757,333.407 Q466.42,335.519 462.06,335.519 Q458.859,335.519 456.169,334.225 Q453.478,332.931 451.98,330.751 L451.98,342.33 Q451.98,344.714 450.345,346.144 Q448.71,347.575 446.054,347.575 Q443.261,347.575 441.558,346.042 Q439.856,344.51 439.856,342.126 L439.856,306.367 Q439.856,303.846 441.456,302.314 Q443.057,300.781 445.781,300.781 Q448.37,300.781 449.97,302.144 Q451.571,303.506 451.775,305.754 Q453.206,303.37 455.964,302.007 Q458.723,300.645 462.06,300.645 z M458.382,326.46 Q461.515,326.46 463.184,324.348 Q464.853,322.237 464.853,318.286 Q464.853,314.131 463.15,311.918 Q461.447,309.704 458.314,309.704 Q455.181,309.704 453.478,311.884 Q451.775,314.063 451.775,318.15 Q451.775,322.169 453.478,324.314 Q455.181,326.46 458.382,326.46 z" fill="#274B7B"/>
      <path d="M504.631,300.645 Q508.922,300.645 512.293,302.859 Q515.665,305.073 517.538,309.091 Q519.411,313.11 519.411,318.286 Q519.411,323.463 517.538,327.379 Q515.665,331.296 512.327,333.407 Q508.99,335.519 504.631,335.519 Q501.429,335.519 498.739,334.225 Q496.049,332.931 494.55,330.751 L494.55,342.33 Q494.55,344.714 492.915,346.144 Q491.281,347.575 488.624,347.575 Q485.832,347.575 484.129,346.042 Q482.426,344.51 482.426,342.126 L482.426,306.367 Q482.426,303.846 484.027,302.314 Q485.627,300.781 488.352,300.781 Q490.94,300.781 492.541,302.144 Q494.141,303.506 494.346,305.754 Q495.776,303.37 498.535,302.007 Q501.293,300.645 504.631,300.645 z M500.953,326.46 Q504.086,326.46 505.755,324.348 Q507.423,322.237 507.423,318.286 Q507.423,314.131 505.721,311.918 Q504.018,309.704 500.885,309.704 Q497.751,309.704 496.049,311.884 Q494.346,314.063 494.346,318.15 Q494.346,322.169 496.049,324.314 Q497.751,326.46 500.953,326.46 z" fill="#274B7B"/>
    </g>
  </g>
</svg>
